<svg width="71" height="71" viewBox="0 0 71 71" fill="none" xmlns="http://www.w3.org/2000/svg">
<path d="M30.5771 52.5834L30.5771 48.9976L40.1837 39.391V42.9768L30.5771 52.5834Z" fill="white" stroke="white" stroke-linejoin="round"/>
<path d="M6.31371 37.5287C6.31331 35.608 7.04544 33.6888 8.51041 32.2238L19.117 21.6172C22.0459 18.6883 26.7947 18.6883 29.7236 21.6172L40.3302 32.2238C41.7944 33.688 42.5265 35.6059 42.5269 37.5255C42.5273 39.4462 41.7952 41.3654 40.3302 42.8304L29.7236 53.437C26.7947 56.3659 22.0459 56.3659 19.117 53.437L8.51041 42.8304C7.04624 41.3662 6.31411 39.4483 6.31371 37.5287ZM18.9049 36.1977C18.4167 36.6859 18.1725 37.3268 18.1726 37.966C18.1728 38.6049 18.417 39.2453 18.9049 39.7333L22.6525 43.4809C23.6289 44.4572 25.2118 44.4572 26.1881 43.4809L29.9357 39.7333C30.4239 39.2451 30.6681 38.6042 30.668 37.965C30.6678 37.3261 30.4237 36.6857 29.9357 36.1977L26.1881 32.4501C25.2118 31.4738 23.6289 31.4738 22.6525 32.4501L18.9049 36.1977Z" fill="white" stroke="white"/>
<path d="M19.2637 20.1623L19.2637 16.4746C22.1531 13.7358 26.688 13.7358 29.5774 16.4746L29.5774 20.1623C26.5418 17.8399 22.2993 17.8399 19.2637 20.1623Z" fill="white" stroke="white" stroke-linejoin="round"/>
<path d="M8.65674 30.6633L8.65674 27.0775L18.2633 17.4709V21.0567L8.65674 30.6633Z" fill="white" stroke="white" stroke-linejoin="round"/>
<path d="M40.1837 30.6632L30.5771 21.0566L30.5771 17.4708L40.1837 27.0774V30.6632Z" fill="white" stroke="white" stroke-linejoin="round"/>
<path d="M23.5059 31.8902V28.0283C24.0432 27.6142 24.7969 27.6142 25.3343 28.0283V31.8902C24.7479 31.6602 24.0922 31.6602 23.5059 31.8902Z" fill="white" stroke="white" stroke-linejoin="round"/>
<path d="M29.0821 35.344L26.3345 32.5964L26.3345 29.0106L29.0821 31.7582L29.0821 35.344Z" fill="white" stroke="white" stroke-linejoin="round"/>
<path d="M19.7583 35.3442L19.7583 31.7584L22.506 29.0107L22.506 32.5965L19.7583 35.3442Z" fill="white" stroke="white" stroke-linejoin="round"/>
<path d="M42.527 32.5254L42.527 33.5224C42.1732 32.8603 41.7254 32.2351 41.1838 31.6666L41.1838 28.2417C42.079 29.5245 42.5267 31.0243 42.527 32.5253C42.527 32.5253 42.527 32.5254 42.527 32.5254Z" fill="white" stroke="white" stroke-linejoin="round"/>
<path d="M7.65709 31.6667C7.11549 32.2352 6.66777 32.8604 6.31394 33.5226V32.5288L6.31394 32.5287C6.31363 31.0267 6.7613 29.5256 7.65709 28.2419L7.65709 31.6667Z" fill="white" stroke="white" stroke-linejoin="round"/>
<mask id="path-11-inside-1_17_2415" fill="white">
<path d="M30.1682 32.9649C30.1681 32.4532 29.9729 31.9415 29.5825 31.5511V36.5511C29.9729 36.9415 30.1681 37.4532 30.1682 37.9649V32.9649Z"/>
</mask>
<path d="M30.1682 32.9649C30.1681 32.4532 29.9729 31.9415 29.5825 31.5511V36.5511C29.9729 36.9415 30.1681 37.4532 30.1682 37.9649V32.9649Z" fill="white"/>
<path d="M29.5825 31.5511L30.2896 30.844C30.0036 30.558 29.5735 30.4724 29.1998 30.6272C28.8261 30.782 28.5825 31.1466 28.5825 31.5511L29.5825 31.5511ZM30.1682 32.9649L31.1682 32.9649L31.1682 32.9647L30.1682 32.9649ZM30.1682 37.9649L29.1682 37.9651C29.1684 38.5173 29.6161 38.9649 30.1684 38.9649C30.7206 38.9648 31.1682 38.5171 31.1682 37.9649L30.1682 37.9649ZM29.5825 36.5511L28.5825 36.5511C28.5825 36.8163 28.6878 37.0707 28.8754 37.2582L29.5825 36.5511ZM28.8754 32.2582C29.0708 32.4536 29.1682 32.7077 29.1682 32.9651L31.1682 32.9647C31.1681 32.1987 30.875 31.4294 30.2896 30.844L28.8754 32.2582ZM29.1682 32.9649L29.1682 37.9649L31.1682 37.9649L31.1682 32.9649L29.1682 32.9649ZM31.1682 37.9647C31.1681 37.1987 30.875 36.4294 30.2896 35.844L28.8754 37.2582C29.0708 37.4536 29.1682 37.7077 29.1682 37.9651L31.1682 37.9647ZM30.5825 36.5511L30.5825 31.5511L28.5825 31.5511L28.5825 36.5511L30.5825 36.5511Z" fill="white" mask="url(#path-11-inside-1_17_2415)"/>
<mask id="path-13-inside-2_17_2415" fill="white">
<path d="M19.2585 31.5513C18.8679 31.9419 18.6726 32.454 18.6727 32.9659L18.6727 37.9651C18.6728 37.4534 18.8681 36.9417 19.2585 36.5513V31.5513Z"/>
</mask>
<path d="M19.2585 31.5513C18.8679 31.9419 18.6726 32.454 18.6727 32.9659L18.6727 37.9651C18.6728 37.4534 18.8681 36.9417 19.2585 36.5513V31.5513Z" fill="white"/>
<path d="M18.1727 37.9653L18.1727 37.9662L19.1727 37.9657L19.1727 37.9649L18.1727 37.9653ZM18.6727 32.9659L19.6727 32.9659L19.6727 32.9657L18.6727 32.9659ZM19.2585 31.5513L20.2585 31.5513C20.2585 31.1468 20.0149 30.7822 19.6412 30.6274C19.2675 30.4726 18.8374 30.5582 18.5514 30.8442L19.2585 31.5513ZM19.2585 36.5513L19.9656 37.2584C20.1532 37.0709 20.2585 36.8165 20.2585 36.5513L19.2585 36.5513ZM18.6727 37.9651L17.6727 37.9651C17.6727 38.5173 18.1204 38.965 18.6726 38.9651C19.2249 38.9652 19.6726 38.5175 19.6727 37.9653L18.6727 37.9651ZM19.6727 32.9657C19.6727 32.7082 19.7701 32.4539 19.9656 32.2584L18.5514 30.8442C17.9657 31.4299 17.6726 32.1997 17.6727 32.9661L19.6727 32.9657ZM18.2585 31.5513L18.2585 36.5513L20.2585 36.5513L20.2585 31.5513L18.2585 31.5513ZM18.5514 35.8442C17.966 36.4296 17.6729 37.1989 17.6727 37.9649L19.6727 37.9653C19.6728 37.7079 19.7702 37.4538 19.9656 37.2584L18.5514 35.8442ZM19.6727 37.9651L19.6727 32.9659L17.6727 32.9659L17.6727 37.9651L19.6727 37.9651Z" fill="white" mask="url(#path-13-inside-2_17_2415)"/>
<mask id="path-15-inside-3_17_2415" fill="white">
<path d="M29.5824 34.3798C29.9728 33.9893 30.1681 33.4777 30.1682 32.966L30.1682 37.9651C30.1683 38.4771 29.973 38.9891 29.5824 39.3798V34.3798Z"/>
</mask>
<path d="M29.5824 34.3798C29.9728 33.9893 30.1681 33.4777 30.1682 32.966L30.1682 37.9651C30.1683 38.4771 29.973 38.9891 29.5824 39.3798V34.3798Z" fill="white"/>
<path d="M29.6682 32.9655L29.6682 32.9656L30.6682 32.9663C30.6682 32.966 30.6682 32.9654 30.6682 32.9648L29.6682 32.9655ZM30.1682 32.966L31.1682 32.966C31.1682 32.4137 30.7205 31.966 30.1683 31.966C29.616 31.9659 29.1683 32.4135 29.1682 32.9658L30.1682 32.966ZM29.5824 34.3798L28.8753 33.6726C28.6877 33.8602 28.5824 34.1145 28.5824 34.3798L29.5824 34.3798ZM29.5824 39.3798L28.5824 39.3798C28.5824 39.7842 28.826 40.1489 29.1997 40.3036C29.5734 40.4584 30.0035 40.3729 30.2895 40.0869L29.5824 39.3798ZM30.1682 37.9651H29.1682L29.1682 37.9653L30.1682 37.9651ZM29.1682 32.9658C29.1681 33.2232 29.0707 33.4772 28.8753 33.6726L30.2895 35.0869C30.8749 34.5014 31.168 33.7322 31.1682 32.9662L29.1682 32.9658ZM28.5824 34.3798L28.5824 39.3798L30.5824 39.3798L30.5824 34.3798L28.5824 34.3798ZM30.2895 40.0869C30.8753 39.5011 31.1683 38.7313 31.1682 37.9649L29.1682 37.9653C29.1682 38.2229 29.0708 38.4771 28.8753 38.6726L30.2895 40.0869ZM31.1682 37.9651L31.1682 32.966L29.1682 32.966L29.1682 37.9651L31.1682 37.9651Z" fill="white" mask="url(#path-15-inside-3_17_2415)"/>
<mask id="path-17-inside-4_17_2415" fill="white">
<path d="M18.6728 32.9659C18.6729 33.4776 18.8682 33.9893 19.2586 34.3797V39.3797C18.8682 38.9893 18.6729 38.4776 18.6728 37.9659V32.9659Z"/>
</mask>
<path d="M18.6728 32.9659C18.6729 33.4776 18.8682 33.9893 19.2586 34.3797V39.3797C18.8682 38.9893 18.6729 38.4776 18.6728 37.9659V32.9659Z" fill="white"/>
<path d="M19.2586 34.3797L20.2586 34.3797C20.2586 34.1145 20.1532 33.8601 19.9657 33.6726L19.2586 34.3797ZM18.6728 32.9659L19.6728 32.9657C19.6727 32.4134 19.2249 31.9658 18.6727 31.9659C18.1204 31.9659 17.6728 32.4136 17.6728 32.9659L18.6728 32.9659ZM18.6728 37.9659L17.6728 37.9659L17.6728 37.9661L18.6728 37.9659ZM19.2586 39.3797L18.5515 40.0868C18.8375 40.3728 19.2676 40.4583 19.6413 40.3036C20.0149 40.1488 20.2586 39.7841 20.2586 39.3797L19.2586 39.3797ZM19.9657 33.6726C19.7703 33.4772 19.6728 33.2231 19.6728 32.9657L17.6728 32.9661C17.673 33.7321 17.966 34.5014 18.5515 35.0868L19.9657 33.6726ZM17.6728 32.9659L17.6728 37.9659L19.6728 37.9659L19.6728 32.9659L17.6728 32.9659ZM17.6728 37.9661C17.673 38.7321 17.966 39.5014 18.5515 40.0868L19.9657 38.6726C19.7703 38.4772 19.6728 38.2231 19.6728 37.9657L17.6728 37.9661ZM20.2586 39.3797L20.2586 34.3797L18.2586 34.3797L18.2586 39.3797L20.2586 39.3797Z" fill="white" mask="url(#path-17-inside-4_17_2415)"/>
<path d="M42.5272 37.5256C42.5275 39.0277 42.0799 40.5288 41.1841 41.8124L41.1841 38.3876C41.7257 37.8191 42.1734 37.1939 42.5272 36.5317V37.5255L42.5272 37.5256Z" fill="white" stroke="white" stroke-linejoin="round"/>
<path d="M6.31373 37.5287L6.31373 36.5317C6.66756 37.1938 7.11528 37.819 7.65687 38.3875L7.65687 41.8123C6.76171 40.5296 6.31404 39.0297 6.31373 37.5287Z" fill="white" stroke="white" stroke-linejoin="round"/>
<path d="M26.3345 41.9203L26.3345 38.3345L29.0821 35.5869L29.0821 39.1727L26.3345 41.9203Z" fill="white" stroke="white" stroke-linejoin="round"/>
<path d="M19.7583 39.1725L19.7583 35.5867L22.506 38.3344L22.506 41.9202L19.7583 39.1725Z" fill="white" stroke="white" stroke-linejoin="round"/>
<path d="M23.5059 42.9026V39.0408C24.0922 39.2707 24.7479 39.2707 25.3343 39.0408L25.3343 42.9026C24.7969 43.3168 24.0432 43.3168 23.5059 42.9026Z" fill="white" stroke="white" stroke-linejoin="round"/>
<path d="M8.65674 42.9767L8.65674 39.3909L18.2633 48.9975V52.5833L8.65674 42.9767Z" fill="white" stroke="white" stroke-linejoin="round"/>
<path d="M19.2637 53.5796L19.2637 49.8919C22.2993 52.2143 26.5418 52.2143 29.5774 49.8919L29.5774 53.5796C26.688 56.3184 22.1531 56.3184 19.2637 53.5796Z" fill="white" stroke="white" stroke-linejoin="round"/>
<mask id="path-26-inside-5_17_2415" fill="white">
<path fill-rule="evenodd" clip-rule="evenodd" d="M8.15685 26.8702C5.03266 29.9944 5.03266 35.0598 8.15685 38.184L18.7635 48.7906C21.8876 51.9147 26.953 51.9147 30.0772 48.7906L40.6838 38.184C43.808 35.0598 43.808 29.9944 40.6838 26.8702L30.0772 16.2636C26.953 13.1394 21.8876 13.1394 18.7635 16.2636L8.15685 26.8702ZM19.2584 31.5513C18.4774 32.3323 18.4774 33.5987 19.2584 34.3797L23.0061 38.1274C23.7871 38.9084 25.0535 38.9084 25.8345 38.1274L29.5822 34.3797C30.3632 33.5987 30.3632 32.3323 29.5822 31.5513L25.8345 27.8036C25.0535 27.0226 23.7871 27.0226 23.0061 27.8036L19.2584 31.5513Z"/>
</mask>
<path fill-rule="evenodd" clip-rule="evenodd" d="M8.15685 26.8702C5.03266 29.9944 5.03266 35.0598 8.15685 38.184L18.7635 48.7906C21.8876 51.9147 26.953 51.9147 30.0772 48.7906L40.6838 38.184C43.808 35.0598 43.808 29.9944 40.6838 26.8702L30.0772 16.2636C26.953 13.1394 21.8876 13.1394 18.7635 16.2636L8.15685 26.8702ZM19.2584 31.5513C18.4774 32.3323 18.4774 33.5987 19.2584 34.3797L23.0061 38.1274C23.7871 38.9084 25.0535 38.9084 25.8345 38.1274L29.5822 34.3797C30.3632 33.5987 30.3632 32.3323 29.5822 31.5513L25.8345 27.8036C25.0535 27.0226 23.7871 27.0226 23.0061 27.8036L19.2584 31.5513Z" fill="#324ADE"/>
<path d="M30.0772 48.7906L29.3701 48.0834L30.0772 48.7906ZM40.6838 38.184L41.3909 38.8911L40.6838 38.184ZM19.2584 34.3797L18.5513 35.0868L19.2584 34.3797ZM23.0061 38.1274L23.7132 37.4203L23.0061 38.1274ZM25.8345 38.1274L25.1274 37.4203L25.8345 38.1274ZM29.5822 34.3797L30.2893 35.0868L29.5822 34.3797ZM8.86396 37.4768C6.13029 34.7432 6.13029 30.311 8.86396 27.5774L7.44975 26.1631C3.93503 29.6779 3.93503 35.3763 7.44975 38.8911L8.86396 37.4768ZM19.4706 48.0834L8.86396 37.4768L7.44975 38.8911L18.0563 49.4977L19.4706 48.0834ZM29.3701 48.0834C26.6364 50.8171 22.2042 50.8171 19.4706 48.0834L18.0563 49.4977C21.5711 53.0124 27.2696 53.0124 30.7843 49.4977L29.3701 48.0834ZM39.9767 37.4768L29.3701 48.0834L30.7843 49.4977L41.3909 38.8911L39.9767 37.4768ZM39.9767 27.5774C42.7103 30.311 42.7103 34.7432 39.9767 37.4768L41.3909 38.8911C44.9056 35.3763 44.9056 29.6779 41.3909 26.1631L39.9767 27.5774ZM29.3701 16.9708L39.9767 27.5774L41.3909 26.1631L30.7843 15.5565L29.3701 16.9708ZM19.4706 16.9708C22.2042 14.2371 26.6364 14.2371 29.3701 16.9708L30.7843 15.5565C27.2696 12.0418 21.5711 12.0418 18.0563 15.5565L19.4706 16.9708ZM8.86396 27.5774L19.4706 16.9708L18.0563 15.5565L7.44975 26.1631L8.86396 27.5774ZM19.9655 33.6726C19.575 33.2821 19.575 32.6489 19.9655 32.2584L18.5513 30.8442C17.3797 32.0158 17.3798 33.9153 18.5513 35.0868L19.9655 33.6726ZM23.7132 37.4203L19.9655 33.6726L18.5513 35.0868L22.299 38.8345L23.7132 37.4203ZM25.1274 37.4203C24.7369 37.8108 24.1037 37.8108 23.7132 37.4203L22.299 38.8345C23.4706 40.0061 25.3701 40.0061 26.5416 38.8345L25.1274 37.4203ZM28.8751 33.6726L25.1274 37.4203L26.5416 38.8345L30.2893 35.0868L28.8751 33.6726ZM28.8751 32.2584C29.2656 32.6489 29.2656 33.2821 28.8751 33.6726L30.2893 35.0868C31.4609 33.9153 31.4609 32.0158 30.2893 30.8442L28.8751 32.2584ZM25.1274 28.5107L28.8751 32.2584L30.2893 30.8442L26.5416 27.0965L25.1274 28.5107ZM23.7132 28.5107C24.1037 28.1202 24.7369 28.1202 25.1274 28.5107L26.5416 27.0965C25.3701 25.9249 23.4706 25.9249 22.299 27.0965L23.7132 28.5107ZM19.9655 32.2584L23.7132 28.5107L22.299 27.0965L18.5513 30.8442L19.9655 32.2584Z" fill="white" mask="url(#path-26-inside-5_17_2415)"/>
<path d="M52.4976 53.2905L52.4976 49.7047L62.1042 40.0981V43.6839L52.4976 53.2905Z" fill="white" stroke="white" stroke-linejoin="round"/>
<path d="M28.2341 38.2357C28.2337 36.315 28.9659 34.3958 30.4308 32.9308L41.0374 22.3242C43.9664 19.3953 48.7151 19.3953 51.644 22.3242L62.2506 32.9308C63.7148 34.395 64.4469 36.3129 64.4473 38.2326C64.4477 40.1533 63.7156 42.0725 62.2506 43.5374L51.644 54.144C48.7151 57.073 43.9664 57.073 41.0374 54.144L30.4308 43.5374C28.9667 42.0733 28.2345 40.1554 28.2341 38.2357ZM40.8253 36.9048C40.3371 37.393 40.0929 38.0339 40.0931 38.6731C40.0932 39.3119 40.3374 39.9524 40.8253 40.4403L44.573 44.188C45.5493 45.1643 47.1322 45.1643 48.1085 44.188L51.8562 40.4403C52.3443 39.9521 52.5885 39.3112 52.5884 38.672C52.5883 38.0332 52.3441 37.3927 51.8562 36.9048L48.1085 33.1571C47.1322 32.1808 45.5493 32.1808 44.573 33.1571L40.8253 36.9048Z" fill="white" stroke="white"/>
<path d="M41.1841 20.8693L41.1841 17.1817C44.0735 14.4429 48.6084 14.4429 51.4978 17.1817L51.4978 20.8693C48.4622 18.547 44.2197 18.547 41.1841 20.8693Z" fill="white" stroke="white" stroke-linejoin="round"/>
<path d="M30.5771 31.3703L30.5771 27.7845L40.1837 18.1779V21.7637L30.5771 31.3703Z" fill="white" stroke="white" stroke-linejoin="round"/>
<path d="M62.1042 31.3702L52.4976 21.7636L52.4976 18.1778L62.1042 27.7844V31.3702Z" fill="white" stroke="white" stroke-linejoin="round"/>
<path d="M45.4263 32.5972V28.7353C45.9636 28.3212 46.7173 28.3212 47.2547 28.7353V32.5972C46.6683 32.3672 46.0126 32.3672 45.4263 32.5972Z" fill="white" stroke="white" stroke-linejoin="round"/>
<path d="M51.0025 36.0511L48.2549 33.3034L48.2549 29.7176L51.0025 32.4653L51.0025 36.0511Z" fill="white" stroke="white" stroke-linejoin="round"/>
<path d="M41.6787 36.0512L41.6787 32.4654L44.4264 29.7177L44.4264 33.3035L41.6787 36.0512Z" fill="white" stroke="white" stroke-linejoin="round"/>
<path d="M64.4474 33.2324L64.4474 34.2295C64.0936 33.5673 63.6459 32.9421 63.1043 32.3736L63.1043 28.9488C63.9994 30.2315 64.4471 31.7314 64.4474 33.2323C64.4474 33.2323 64.4474 33.2324 64.4474 33.2324Z" fill="white" stroke="white" stroke-linejoin="round"/>
<path d="M29.5775 32.3738C29.0359 32.9423 28.5882 33.5674 28.2344 34.2296V33.2358L28.2344 33.2357C28.234 31.7337 28.6817 30.2326 29.5775 28.9489L29.5775 32.3738Z" fill="white" stroke="white" stroke-linejoin="round"/>
<mask id="path-38-inside-6_17_2415" fill="white">
<path d="M52.0887 33.6719C52.0885 33.1602 51.8933 32.6485 51.5029 32.2581V37.2581C51.8933 37.6485 52.0885 38.1602 52.0887 38.6719V33.6719Z"/>
</mask>
<path d="M52.0887 33.6719C52.0885 33.1602 51.8933 32.6485 51.5029 32.2581V37.2581C51.8933 37.6485 52.0885 38.1602 52.0887 38.6719V33.6719Z" fill="white"/>
<path d="M51.5029 32.2581L52.21 31.551C51.924 31.265 51.4939 31.1795 51.1202 31.3342C50.7465 31.489 50.5029 31.8537 50.5029 32.2581L51.5029 32.2581ZM52.0887 33.6719L53.0887 33.6719L53.0887 33.6717L52.0887 33.6719ZM52.0887 38.6719L51.0887 38.6721C51.0888 39.2244 51.5365 39.672 52.0888 39.6719C52.641 39.6719 53.0887 39.2242 53.0887 38.6719L52.0887 38.6719ZM51.5029 37.2581L50.5029 37.2581C50.5029 37.5233 50.6082 37.7777 50.7958 37.9652L51.5029 37.2581ZM50.7958 32.9652C50.9912 33.1606 51.0886 33.4147 51.0887 33.6721L53.0887 33.6717C53.0885 32.9057 52.7954 32.1364 52.21 31.551L50.7958 32.9652ZM51.0887 33.6719L51.0887 38.6719L53.0887 38.6719L53.0887 33.6719L51.0887 33.6719ZM53.0887 38.6717C53.0885 37.9057 52.7954 37.1364 52.21 36.551L50.7958 37.9652C50.9912 38.1606 51.0886 38.4147 51.0887 38.6721L53.0887 38.6717ZM52.5029 37.2581L52.5029 32.2581L50.5029 32.2581L50.5029 37.2581L52.5029 37.2581Z" fill="white" mask="url(#path-38-inside-6_17_2415)"/>
<mask id="path-40-inside-7_17_2415" fill="white">
<path d="M41.1789 32.2583C40.7883 32.649 40.593 33.161 40.5931 33.673L40.5931 38.6721C40.5932 38.1604 40.7885 37.6488 41.1789 37.2583V32.2583Z"/>
</mask>
<path d="M41.1789 32.2583C40.7883 32.649 40.593 33.161 40.5931 33.673L40.5931 38.6721C40.5932 38.1604 40.7885 37.6488 41.1789 37.2583V32.2583Z" fill="white"/>
<path d="M40.0931 38.6723L40.0931 38.6733L41.0931 38.6727L41.0931 38.6719L40.0931 38.6723ZM40.5931 33.673L41.5931 33.673L41.5931 33.6728L40.5931 33.673ZM41.1789 32.2583L42.1789 32.2583C42.1789 31.8539 41.9353 31.4892 41.5616 31.3345C41.1879 31.1797 40.7578 31.2652 40.4718 31.5512L41.1789 32.2583ZM41.1789 37.2583L41.886 37.9654C42.0736 37.7779 42.1789 37.5236 42.1789 37.2583L41.1789 37.2583ZM40.5931 38.6721L39.5931 38.6721C39.5931 39.2244 40.0408 39.6721 40.593 39.6721C41.1453 39.6722 41.593 39.2246 41.5931 38.6723L40.5931 38.6721ZM41.5931 33.6728C41.5931 33.4152 41.6905 33.161 41.886 32.9654L40.4718 31.5512C39.8861 32.137 39.593 32.9068 39.5931 33.6732L41.5931 33.6728ZM40.1789 32.2583L40.1789 37.2583L42.1789 37.2583L42.1789 32.2583L40.1789 32.2583ZM40.4718 36.5512C39.8864 37.1367 39.5933 37.9059 39.5931 38.6719L41.5931 38.6723C41.5932 38.4149 41.6906 38.1608 41.886 37.9654L40.4718 36.5512ZM41.5931 38.6721L41.5931 33.673L39.5931 33.673L39.5931 38.6721L41.5931 38.6721Z" fill="white" mask="url(#path-40-inside-7_17_2415)"/>
<mask id="path-42-inside-8_17_2415" fill="white">
<path d="M51.5028 35.0868C51.8932 34.6964 52.0885 34.1847 52.0886 33.673L52.0886 38.6722C52.0887 39.1841 51.8934 39.6962 51.5028 40.0868V35.0868Z"/>
</mask>
<path d="M51.5028 35.0868C51.8932 34.6964 52.0885 34.1847 52.0886 33.673L52.0886 38.6722C52.0887 39.1841 51.8934 39.6962 51.5028 40.0868V35.0868Z" fill="white"/>
<path d="M51.5886 33.6725L51.5886 33.6727L52.5886 33.6733C52.5886 33.6731 52.5886 33.6725 52.5886 33.6718L51.5886 33.6725ZM52.0886 33.673L53.0886 33.673C53.0886 33.1207 52.6409 32.6731 52.0887 32.673C51.5364 32.6729 51.0887 33.1205 51.0886 33.6728L52.0886 33.673ZM51.5028 35.0868L50.7957 34.3797C50.6082 34.5672 50.5028 34.8216 50.5028 35.0868L51.5028 35.0868ZM51.5028 40.0868L50.5028 40.0868C50.5028 40.4912 50.7464 40.8559 51.1201 41.0107C51.4938 41.1654 51.9239 41.0799 52.2099 40.7939L51.5028 40.0868ZM52.0886 38.6722H51.0886L51.0886 38.6724L52.0886 38.6722ZM51.0886 33.6728C51.0885 33.9302 50.9911 34.1843 50.7957 34.3797L52.2099 35.7939C52.7953 35.2085 53.0884 34.4392 53.0886 33.6732L51.0886 33.6728ZM50.5028 35.0868L50.5028 40.0868L52.5028 40.0868L52.5028 35.0868L50.5028 35.0868ZM52.2099 40.7939C52.7957 40.2081 53.0887 39.4384 53.0886 38.6719L51.0886 38.6724C51.0886 38.9299 50.9912 39.1842 50.7957 39.3797L52.2099 40.7939ZM53.0886 38.6722L53.0886 33.673L51.0886 33.673L51.0886 38.6722L53.0886 38.6722Z" fill="white" mask="url(#path-42-inside-8_17_2415)"/>
<mask id="path-44-inside-9_17_2415" fill="white">
<path d="M40.5932 33.6729C40.5933 34.1846 40.7886 34.6963 41.179 35.0867V40.0867C40.7886 39.6963 40.5933 39.1846 40.5932 38.6729V33.6729Z"/>
</mask>
<path d="M40.5932 33.6729C40.5933 34.1846 40.7886 34.6963 41.179 35.0867V40.0867C40.7886 39.6963 40.5933 39.1846 40.5932 38.6729V33.6729Z" fill="white"/>
<path d="M41.179 35.0867L42.179 35.0867C42.179 34.8215 42.0736 34.5671 41.8861 34.3796L41.179 35.0867ZM40.5932 33.6729L41.5932 33.6727C41.5931 33.1205 41.1453 32.6729 40.5931 32.6729C40.0409 32.673 39.5932 33.1207 39.5932 33.6729L40.5932 33.6729ZM40.5932 38.6729L39.5932 38.6729L39.5932 38.6731L40.5932 38.6729ZM41.179 40.0867L40.4719 40.7938C40.7579 41.0798 41.188 41.1654 41.5617 41.0106C41.9353 40.8558 42.179 40.4912 42.179 40.0867L41.179 40.0867ZM41.8861 34.3796C41.6907 34.1842 41.5933 33.9301 41.5932 33.6727L39.5932 33.6731C39.5934 34.4391 39.8865 35.2084 40.4719 35.7938L41.8861 34.3796ZM39.5932 33.6729L39.5932 38.6729L41.5932 38.6729L41.5932 33.6729L39.5932 33.6729ZM39.5932 38.6731C39.5934 39.4391 39.8865 40.2084 40.4719 40.7938L41.8861 39.3796C41.6907 39.1842 41.5933 38.9301 41.5932 38.6727L39.5932 38.6731ZM42.179 40.0867L42.179 35.0867L40.179 35.0867L40.179 40.0867L42.179 40.0867Z" fill="white" mask="url(#path-44-inside-9_17_2415)"/>
<path d="M64.4476 38.2327C64.4479 39.7347 64.0003 41.2358 63.1045 42.5195L63.1045 39.0946C63.6461 38.5261 64.0938 37.9009 64.4476 37.2388V38.2326L64.4476 38.2327Z" fill="white" stroke="white" stroke-linejoin="round"/>
<path d="M28.2341 38.2357L28.2341 37.2387C28.588 37.9009 29.0357 38.526 29.5773 39.0945L29.5773 42.5194C28.6821 41.2366 28.2345 39.7367 28.2341 38.2357Z" fill="white" stroke="white" stroke-linejoin="round"/>
<path d="M48.2549 42.6274L48.2549 39.0416L51.0025 36.2939L51.0025 39.8797L48.2549 42.6274Z" fill="white" stroke="white" stroke-linejoin="round"/>
<path d="M41.6787 39.8796L41.6787 36.2938L44.4264 39.0414L44.4264 42.6272L41.6787 39.8796Z" fill="white" stroke="white" stroke-linejoin="round"/>
<path d="M45.4263 43.6097V39.7478C46.0126 39.9778 46.6683 39.9777 47.2547 39.7478L47.2547 43.6097C46.7173 44.0238 45.9636 44.0238 45.4263 43.6097Z" fill="white" stroke="white" stroke-linejoin="round"/>
<path d="M30.5771 43.6838L30.5771 40.098L40.1837 49.7046V53.2904L30.5771 43.6838Z" fill="white" stroke="white" stroke-linejoin="round"/>
<path d="M41.1841 54.2866L41.1841 50.5989C44.2197 52.9213 48.4622 52.9213 51.4978 50.5989L51.4978 54.2866C48.6084 57.0254 44.0735 57.0254 41.1841 54.2866Z" fill="white" stroke="white" stroke-linejoin="round"/>
<mask id="path-53-inside-10_17_2415" fill="white">
<path fill-rule="evenodd" clip-rule="evenodd" d="M30.0773 27.5773C26.9531 30.7015 26.9531 35.7668 30.0773 38.891L40.6839 49.4976C43.8081 52.6218 48.8734 52.6218 51.9976 49.4976L62.6042 38.891C65.7284 35.7668 65.7284 30.7015 62.6042 27.5773L51.9976 16.9707C48.8734 13.8465 43.8081 13.8465 40.6839 16.9707L30.0773 27.5773ZM41.1788 32.2583C40.3978 33.0394 40.3978 34.3057 41.1788 35.0868L44.9265 38.8344C45.7076 39.6155 46.9739 39.6155 47.7549 38.8344L51.5026 35.0867C52.2836 34.3057 52.2836 33.0394 51.5026 32.2583L47.7549 28.5107C46.9739 27.7296 45.7076 27.7296 44.9265 28.5107L41.1788 32.2583Z"/>
</mask>
<path fill-rule="evenodd" clip-rule="evenodd" d="M30.0773 27.5773C26.9531 30.7015 26.9531 35.7668 30.0773 38.891L40.6839 49.4976C43.8081 52.6218 48.8734 52.6218 51.9976 49.4976L62.6042 38.891C65.7284 35.7668 65.7284 30.7015 62.6042 27.5773L51.9976 16.9707C48.8734 13.8465 43.8081 13.8465 40.6839 16.9707L30.0773 27.5773ZM41.1788 32.2583C40.3978 33.0394 40.3978 34.3057 41.1788 35.0868L44.9265 38.8344C45.7076 39.6155 46.9739 39.6155 47.7549 38.8344L51.5026 35.0867C52.2836 34.3057 52.2836 33.0394 51.5026 32.2583L47.7549 28.5107C46.9739 27.7296 45.7076 27.7296 44.9265 28.5107L41.1788 32.2583Z" fill="#324ADE"/>
<path d="M51.9976 49.4976L51.2905 48.7905L51.9976 49.4976ZM62.6042 38.891L63.3113 39.5981L62.6042 38.891ZM41.1788 32.2583L41.8859 32.9654L41.1788 32.2583ZM44.9265 28.5107L44.2194 27.8036L44.9265 28.5107ZM30.7844 38.1839C28.0507 35.4502 28.0507 31.0181 30.7844 28.2844L29.3702 26.8702C25.8554 30.3849 25.8554 36.0834 29.3702 39.5981L30.7844 38.1839ZM41.391 48.7905L30.7844 38.1839L29.3702 39.5981L39.9768 50.2047L41.391 48.7905ZM51.2905 48.7905C48.5568 51.5241 44.1246 51.5241 41.391 48.7905L39.9768 50.2047C43.4915 53.7194 49.19 53.7194 52.7047 50.2047L51.2905 48.7905ZM61.8971 38.1839L51.2905 48.7905L52.7047 50.2047L63.3113 39.5981L61.8971 38.1839ZM61.8971 28.2844C64.6307 31.0181 64.6307 35.4502 61.8971 38.1839L63.3113 39.5981C66.826 36.0834 66.826 30.3849 63.3113 26.8702L61.8971 28.2844ZM51.2905 17.6778L61.8971 28.2844L63.3113 26.8702L52.7047 16.2636L51.2905 17.6778ZM41.391 17.6778C44.1246 14.9441 48.5568 14.9441 51.2905 17.6778L52.7047 16.2636C49.19 12.7488 43.4915 12.7489 39.9768 16.2636L41.391 17.6778ZM30.7844 28.2844L41.391 17.6778L39.9768 16.2636L29.3702 26.8702L30.7844 28.2844ZM41.8859 34.3796C41.4954 33.9891 41.4954 33.356 41.8859 32.9654L40.4717 31.5512C39.3002 32.7228 39.3002 34.6223 40.4717 35.7939L41.8859 34.3796ZM45.6336 38.1273L41.8859 34.3796L40.4717 35.7939L44.2194 39.5415L45.6336 38.1273ZM47.0478 38.1273C46.6573 38.5178 46.0241 38.5178 45.6336 38.1273L44.2194 39.5415C45.391 40.7131 47.2905 40.7131 48.462 39.5415L47.0478 38.1273ZM50.7955 34.3796L47.0478 38.1273L48.462 39.5415L52.2097 35.7939L50.7955 34.3796ZM50.7955 32.9654C51.186 33.356 51.186 33.9891 50.7955 34.3796L52.2097 35.7939C53.3813 34.6223 53.3813 32.7228 52.2097 31.5512L50.7955 32.9654ZM47.0478 29.2178L50.7955 32.9654L52.2097 31.5512L48.462 27.8036L47.0478 29.2178ZM45.6336 29.2178C46.0241 28.8272 46.6573 28.8272 47.0478 29.2178L48.462 27.8036C47.2905 26.632 45.391 26.632 44.2194 27.8036L45.6336 29.2178ZM41.8859 32.9654L45.6336 29.2178L44.2194 27.8036L40.4717 31.5512L41.8859 32.9654Z" fill="white" mask="url(#path-53-inside-10_17_2415)"/>
</svg>
