<svg width="100" height="82" viewBox="0 0 100 82" fill="none" xmlns="http://www.w3.org/2000/svg">
<g clip-path="url(#clip0_25_2)">
<path d="M31.4481 81.256C69.1841 81.256 89.8243 49.9913 89.8243 22.8798C89.8243 21.9921 89.8243 21.1076 89.7643 20.2276C93.7799 17.3231 97.2455 13.7275 100 9.60747C96.2555 11.2664 92.2832 12.3553 88.2154 12.8353C92.4988 10.2708 95.7044 6.23855 97.2355 1.48738C93.2077 3.87741 88.8021 5.56187 84.2076 6.46744C76.4375 -1.79488 63.4407 -2.19377 55.1784 5.57632C49.8494 10.5875 47.5894 18.0542 49.2428 25.1799C32.7481 24.3521 17.378 16.5609 6.96008 3.74296C1.51446 13.1175 4.2956 25.111 13.3124 31.131C10.0468 31.0344 6.85341 30.1533 4.00004 28.5632C4.00004 28.6477 4.00004 28.7355 4.00004 28.8232C4.00227 38.59 10.8868 47.0012 20.4602 48.9357C17.4402 49.759 14.2702 49.8801 11.1957 49.2879C13.8835 57.6458 21.5858 63.3714 30.3637 63.5358C23.098 69.2459 14.1235 72.3448 4.88339 72.3359C3.25115 72.3326 1.62113 72.2337 0 72.0393C9.38233 78.0605 20.3002 81.2538 31.4481 81.2394" fill="white"/>
</g>
<defs>
<clipPath id="clip0_25_2">
<rect width="100" height="82" fill="white"/>
</clipPath>
</defs>
</svg>
